<?xml version="1.0" encoding="UTF-8" standalone="no"?>
<svg
   xmlns:dc="http://purl.org/dc/elements/1.1/"
   xmlns:cc="http://creativecommons.org/ns#"
   xmlns:rdf="http://www.w3.org/1999/02/22-rdf-syntax-ns#"
   xmlns:svg="http://www.w3.org/2000/svg"
   xmlns="http://www.w3.org/2000/svg"
   height="121.6"
   width="393.87875"
   xml:space="preserve"
   viewBox="0 0 393.87876 121.6"
   y="0px"
   x="0px"
   id="Layer_1"
   version="1.1"><metadata
     id="metadata37"><rdf:RDF><cc:Work
         rdf:about=""><dc:format>image/svg+xml</dc:format><dc:type
           rdf:resource="http://purl.org/dc/dcmitype/StillImage" /><dc:title></dc:title></cc:Work></rdf:RDF></metadata><defs
     id="defs35" /><style
     id="style3"
     type="text/css">
	.st0{fill:#FFFFFF;}
	.st1{fill:#527F3A;}
	.st2{fill-rule:evenodd;clip-rule:evenodd;fill:#527F3A;}
	.st3{fill-rule:evenodd;clip-rule:evenodd;fill:#1E87C9;}
	.st4{fill-rule:evenodd;clip-rule:evenodd;fill:#FFFFFF;}
</style><g
     id="g5"><path
       style="fill:#ffffff"
       id="path7"
       d="m 0.6,71.5 c 0.4,30.9 25.7,50.3 48.5,49.6 23.3,-0.6 50.6,-18.7 51,-49.2 l 0,-71.3 -99.5,0 0,70.9 0,0 z"
       class="st0" /><path
       style="fill:#527f3a"
       id="path9"
       d="m 47.9,121.6 0,0 C 25.2,121.6 0.4,102.4 0,71.4 L 0,0 l 100.6,0 0,71.8 c -0.4,29.9 -27,49.1 -51.5,49.8 -0.4,0 -0.8,0 -1.2,0 z M 1.1,1.1 l 0,70.4 c 0.4,30.3 24.5,49.1 46.7,49.1 l 0,0 c 0.4,0 0.8,0 1.2,0 24,-0.7 50.1,-19.5 50.4,-48.7 l 0,-70.8 -98.3,0 z"
       class="st1" /></g><path
     style="clip-rule:evenodd;fill:#527f3a;fill-rule:evenodd"
     id="path11"
     d="m 65.8,55.4 c -23.1,-26.9 -51,-5.3 -51.5,14.1 -0.6,23.7 19,37.3 34.8,36.6 16.4,-0.6 36.2,-12.2 36.7,-34.9 l -0.5,0 C 82.2,85.9 67.9,88 60.5,82.8 51.8,76.7 51.2,60.2 65.8,55.4 l 0,0 z"
     class="st2" /><path
     style="clip-rule:evenodd;fill:#1e87c9;fill-rule:evenodd"
     id="path13"
     d="m 14.6,38.9 0,-23.9 71.4,0 0,54.6 -0.6,0 C 85.9,39.9 48.7,10.6 14.6,38.9 l 0,0 z"
     class="st3" /><g
     id="text4156"
     style="font-style:normal;font-weight:normal;font-size:40px;line-height:125%;font-family:sans-serif;letter-spacing:0px;word-spacing:0px;fill:#000000;fill-opacity:1;stroke:none;stroke-width:1px;stroke-linecap:butt;stroke-linejoin:miter;stroke-opacity:1"><path
       id="path4161"
       style="font-style:normal;font-variant:normal;font-weight:600;font-stretch:normal;font-family:'Zilla Slab';-inkscape-font-specification:'Zilla Slab Semi-Bold';fill:#ffffff"
       d="m 142.96,70.300003 0,-3.8 -2.8,0 -7.28,-9.8 6.68,-8.6 2.92,0 0,-3.8 -10.16,0 0,3.8 2.56,0 -5.4,7.2 -3.64,0 0,-7.2 2.6,0 0,-3.8 -10.04,0 0,3.8 3,0 0,18.4 -3,0 0,3.8 9.92,0 0,-3.8 -2.48,0 0,-7.56 3.6,0 5.6,7.56 -2.68,0 0,3.8 10.6,0 z" /><path
       id="path4163"
       style="font-style:normal;font-variant:normal;font-weight:600;font-stretch:normal;font-family:'Zilla Slab';-inkscape-font-specification:'Zilla Slab Semi-Bold';fill:#ffffff"
       d="m 160.8175,64.820003 -3.56,-0.68 c -0.36,1.52 -1.4,3.12 -4.16,3.12 -2.96,0 -4.56,-1.8 -4.8,-5.04 l 12.12,0 c 0.16,-0.84 0.24,-1.64 0.24,-2.4 -0.04,-4.52 -3.16,-7.84 -8.12,-7.84 -5.48,0 -8.72,4.12 -8.72,9.64 0,5.96 3.72,9.08 8.96,9.08 4.88,0 7.72,-2.72 8.04,-5.88 z m -4.56,-5.24 -7.92,0 c 0.32,-2.52 1.6,-4.44 4.16,-4.44 2.84,0 4,2.32 3.76,4.44 z" /><path
       id="path4165"
       style="font-style:normal;font-variant:normal;font-weight:600;font-stretch:normal;font-family:'Zilla Slab';-inkscape-font-specification:'Zilla Slab Semi-Bold';fill:#ffffff"
       d="m 164.79813,53.660003 -0.76,4.48 3.44,0.36 0.72,-2.76 c 0.92,-0.48 1.88,-0.6 3,-0.6 3,0 3.36,2.04 3.36,4.16 l 0,1 c -0.92,-0.12 -2,-0.16 -3.04,-0.16 -4.08,0 -8.36,1 -8.36,5.44 0,3.8 3,5.12 5.52,5.12 2.88,0 4.8,-1.76 5.88,-3.64 l 0,0.08 c 0.16,2.16 1.4,3.56 3.68,3.56 1,0 2.04,-0.28 2.88,-0.76 l -0.04,-2.36 c -0.28,0.08 -0.64,0.16 -0.92,0.16 -0.92,0 -1.32,-0.44 -1.32,-1.6 l 0,-8.08 c 0,-4.08 -2.88,-6.08 -6.88,-6.08 -2.72,0 -4.48,0.4 -7.16,1.68 z m 9.76,9.52 c -0.2,2.88 -2.36,4.36 -4.4,4.36 -1.56,0 -2.6,-0.84 -2.6,-2.44 0,-2.24 2,-2.8 4.12,-2.8 1,0 1.96,0.12 2.88,0.24 l 0,0.64 z" /><path
       id="path4167"
       style="font-style:normal;font-variant:normal;font-weight:600;font-stretch:normal;font-family:'Zilla Slab';-inkscape-font-specification:'Zilla Slab Semi-Bold';fill:#ffffff"
       d="m 210.24875,62.660003 c 0,-6.4 -5.6,-7.12 -8.88,-7.84 -2.56,-0.6 -5,-1.2 -5,-3.8 0,-2.24 1.84,-3.2 4.36,-3.2 1.4,0 2.92,0.24 4.4,1.12 l 0.36,3.36 3.56,-0.32 -0.24,-5.48 c -1.68,-1.56 -5,-2.6 -8.2,-2.6 -4.6,0 -9,2.2 -9,7.64 0,5.44 4.36,6.36 8.08,7.08 3.04,0.6 5.8,1.24 5.8,4.52 0,3 -2.32,3.72 -5.4,3.72 -1.28,0 -2.72,-0.12 -4.48,-1.04 l 0.08,-3.2 -3.56,-0.36 -0.72,5.96 c 1.92,1.6 5.48,2.48 9,2.48 5.92,0 9.84,-2.84 9.84,-8.04 z" /><path
       id="path4169"
       style="font-style:normal;font-variant:normal;font-weight:600;font-stretch:normal;font-family:'Zilla Slab';-inkscape-font-specification:'Zilla Slab Semi-Bold';fill:#ffffff"
       d="m 234.16188,70.300003 0,-3.28 -2.8,0 0,-14.68 -7.48,0 0,3.28 3.2,0 0,7 c -0.04,2.56 -1.72,4.72 -4.4,4.72 -2.24,0 -3.52,-1.28 -3.52,-4.68 l 0,-10.32 -6.96,0 0,3.28 2.68,0 0,8.6 c 0,4.48 2.84,6.44 6.28,6.44 2.68,0 4.8,-1.24 5.92,-3.36 l 0,3 7.08,0 z" /><path
       id="path4171"
       style="font-style:normal;font-variant:normal;font-weight:600;font-stretch:normal;font-family:'Zilla Slab';-inkscape-font-specification:'Zilla Slab Semi-Bold';fill:#ffffff"
       d="m 246.96688,52.060003 c -2.28,0 -3.68,1.6 -4.32,3.64 l 0,-3.36 -6.76,0 0,3.32 2.8,0 0,11.36 -2.68,0 0,3.28 10.52,0 0,-3.28 -3.56,0 0,-7.96 c 0,-2.16 1.24,-3.48 2.76,-3.48 0.48,0 0.88,0.16 1.36,0.4 l 0.68,3.08 3.32,-0.4 -0.76,-5.6 c -1.12,-0.72 -2.28,-1 -3.36,-1 z" /><path
       id="path4173"
       style="font-style:normal;font-variant:normal;font-weight:600;font-stretch:normal;font-family:'Zilla Slab';-inkscape-font-specification:'Zilla Slab Semi-Bold';fill:#ffffff"
       d="m 272.5925,55.620003 0,-3.28 -8.08,0 0,3.28 2,0 -3.36,9.12 -0.24,0 -4.04,-9.12 2.2,0 0,-3.28 -8.8,0 0,3.28 2,0 6.8,14.68 3.12,0 6.44,-14.68 1.96,0 z" /><path
       id="path4175"
       style="font-style:normal;font-variant:normal;font-weight:600;font-stretch:normal;font-family:'Zilla Slab';-inkscape-font-specification:'Zilla Slab Semi-Bold';fill:#ffffff"
       d="m 290.34875,64.820003 -3.56,-0.68 c -0.36,1.52 -1.4,3.12 -4.16,3.12 -2.96,0 -4.56,-1.8 -4.8,-5.04 l 12.12,0 c 0.16,-0.84 0.24,-1.64 0.24,-2.4 -0.04,-4.52 -3.16,-7.84 -8.12,-7.84 -5.48,0 -8.72,4.12 -8.72,9.64 0,5.96 3.72,9.08 8.96,9.08 4.88,0 7.72,-2.72 8.04,-5.88 z m -4.56,-5.24 -7.92,0 c 0.32,-2.52 1.6,-4.44 4.16,-4.44 2.84,0 4,2.32 3.76,4.44 z" /><path
       id="path4177"
       style="font-style:normal;font-variant:normal;font-weight:600;font-stretch:normal;font-family:'Zilla Slab';-inkscape-font-specification:'Zilla Slab Semi-Bold';fill:#ffffff"
       d="m 311.30625,55.620003 0,-3.28 -8.08,0 0,3.28 2.04,0 -3.36,9.72 -0.24,0 -4.16,-9.72 2.28,0 0,-3.28 -8.84,0 0,3.28 1.96,0 6.36,14.84 -1.76,5 -3.04,0 0,3.36 9.6,0 0,-3.36 -2.64,0 2,-5.16 6,-14.68 1.88,0 z" /><path
       id="path4179"
       style="font-style:normal;font-variant:normal;font-weight:600;font-stretch:normal;font-family:'Zilla Slab';-inkscape-font-specification:'Zilla Slab Semi-Bold';fill:#ffffff"
       d="m 343.395,52.780003 -0.8,-8.48 -22.28,0 -0.8,8.48 3.8,0.32 0.8,-5 5.12,0 0,18.4 -4.2,0 0,3.8 13,0 0,-3.8 -4.36,0 0,-18.4 5.08,0 0.8,5 3.84,-0.32 z" /><path
       id="path4181"
       style="font-style:normal;font-variant:normal;font-weight:600;font-stretch:normal;font-family:'Zilla Slab';-inkscape-font-specification:'Zilla Slab Semi-Bold';fill:#ffffff"
       d="m 361.8325,61.340003 c 0,-5.08 -3.08,-9.4 -9.32,-9.4 -6.2,0 -9.36,4.32 -9.36,9.56 0,5.64 3.64,9.2 9.12,9.2 5.64,0 9.56,-3.76 9.56,-9.36 z m -4.44,-0.12 c 0,3.64 -1.88,6.12 -4.96,6.12 -3.2,0 -4.84,-2.68 -4.84,-6.08 0,-3.6 1.8,-5.96 4.84,-5.96 2.92,0 4.96,2.08 4.96,5.92 z" /><path
       id="path4183"
       style="font-style:normal;font-variant:normal;font-weight:600;font-stretch:normal;font-family:'Zilla Slab';-inkscape-font-specification:'Zilla Slab Semi-Bold';fill:#ffffff"
       d="m 382.53563,61.340003 c 0,-5.08 -3.08,-9.4 -9.32,-9.4 -6.2,0 -9.36,4.32 -9.36,9.56 0,5.64 3.64,9.2 9.12,9.2 5.64,0 9.56,-3.76 9.56,-9.36 z m -4.44,-0.12 c 0,3.64 -1.88,6.12 -4.96,6.12 -3.2,0 -4.84,-2.68 -4.84,-6.08 0,-3.6 1.8,-5.96 4.84,-5.96 2.92,0 4.96,2.08 4.96,5.92 z" /><path
       id="path4185"
       style="font-style:normal;font-variant:normal;font-weight:600;font-stretch:normal;font-family:'Zilla Slab';-inkscape-font-specification:'Zilla Slab Semi-Bold';fill:#ffffff"
       d="m 393.87875,70.300003 0,-3.28 -2.68,0 0,-24.24 -7.08,0 0,3.28 2.84,0 0,20.96 -2.68,0 0,3.28 9.6,0 z" /></g></svg>