<?xml version="1.0" encoding="UTF-8" standalone="no"?>
<svg
   xmlns:dc="http://purl.org/dc/elements/1.1/"
   xmlns:cc="http://creativecommons.org/ns#"
   xmlns:rdf="http://www.w3.org/1999/02/22-rdf-syntax-ns#"
   xmlns:svg="http://www.w3.org/2000/svg"
   xmlns="http://www.w3.org/2000/svg"
   width="50.799999mm"
   height="50.799999mm"
   viewBox="0 0 50.799999 50.799999"
   version="1.1"
   id="svg8">
  <defs
     id="defs2" />
  <metadata
     id="metadata5">
    <rdf:RDF>
      <cc:Work
         rdf:about="">
        <dc:format>image/svg+xml</dc:format>
        <dc:type
           rdf:resource="http://purl.org/dc/dcmitype/StillImage" />
        <dc:title></dc:title>
      </cc:Work>
    </rdf:RDF>
  </metadata>
  <path
     id="path4246"
     d="M 50.799999,25.400002 A 25.4,25.4 0 0 1 25.4,50.800001 25.4,25.4 0 0 1 0,25.400002 25.4,25.4 0 0 1 25.4,1.9073486e-6 25.4,25.4 0 0 1 50.799999,25.400002 Z"
     style="opacity:1;fill:#000000;fill-opacity:1;stroke:none;stroke-width:4;stroke-linecap:butt;stroke-linejoin:miter;stroke-miterlimit:4;stroke-dasharray:none;stroke-dashoffset:0;stroke-opacity:1" />
  <rect
     y="16.933331"
     x="16.933334"
     height="16.933334"
     width="16.933334"
     id="rect4186"
     style="opacity:1;fill:#1a1a1a;fill-opacity:1;stroke:none;stroke-width:4;stroke-linecap:butt;stroke-linejoin:miter;stroke-miterlimit:4;stroke-dasharray:none;stroke-dashoffset:0;stroke-opacity:1" />
  <path
     style="opacity:1;fill:#333333;fill-opacity:1;stroke:none;stroke-width:4;stroke-linecap:butt;stroke-linejoin:miter;stroke-miterlimit:4;stroke-dasharray:none;stroke-dashoffset:0;stroke-opacity:1"
     d="M 5.2617188 60 A 89.999999 89.999999 0 0 0 4.0195312 63.402344 A 89.999999 89.999999 0 0 0 1.7949219 72.119141 A 89.999999 89.999999 0 0 0 0.44921875 81.015625 A 89.999999 89.999999 0 0 0 0 90 A 89.999999 89.999999 0 0 0 0.22460938 96.367188 A 89.999999 89.999999 0 0 0 1.3085938 105.29688 A 89.999999 89.999999 0 0 0 3.2792969 114.07422 A 89.999999 89.999999 0 0 0 5.25 120 L 60 120 L 60 60 L 5.2617188 60 z "
     id="rect4190"
     transform="scale(0.28222222,0.28222222)" />
  <path
     style="opacity:1;fill:#1a1a1a;fill-opacity:1;stroke:none;stroke-width:4;stroke-linecap:butt;stroke-linejoin:miter;stroke-miterlimit:4;stroke-dasharray:none;stroke-dashoffset:0;stroke-opacity:1"
     d="M 5.25 120 A 89.999999 89.999999 0 0 0 6.1171875 122.61133 A 89.999999 89.999999 0 0 0 9.7910156 130.82422 A 89.999999 89.999999 0 0 0 14.267578 138.62695 A 89.999999 89.999999 0 0 0 19.5 145.94531 A 89.999999 89.999999 0 0 0 25.4375 152.70312 A 89.999999 89.999999 0 0 0 32.019531 158.83594 A 89.999999 89.999999 0 0 0 39.181641 164.2793 A 89.999999 89.999999 0 0 0 46.851562 168.98242 A 89.999999 89.999999 0 0 0 54.953125 172.89453 A 89.999999 89.999999 0 0 0 60 174.73828 L 60 120 L 5.25 120 z "
     id="rect4180"
     transform="scale(0.28222222,0.28222222)" />
  <path
     style="opacity:1;fill:#4d4d4d;fill-opacity:1;stroke:none;stroke-width:4;stroke-linecap:butt;stroke-linejoin:miter;stroke-miterlimit:4;stroke-dasharray:none;stroke-dashoffset:0;stroke-opacity:1"
     d="M 60 174.73828 A 89.999999 89.999999 0 0 0 63.402344 175.98047 A 89.999999 89.999999 0 0 0 72.119141 178.20508 A 89.999999 89.999999 0 0 0 81.015625 179.55078 A 89.999999 89.999999 0 0 0 90 180 A 89.999999 89.999999 0 0 0 96.367188 179.77539 A 89.999999 89.999999 0 0 0 105.29688 178.69141 A 89.999999 89.999999 0 0 0 114.07422 176.7207 A 89.999999 89.999999 0 0 0 120 174.75 L 120 120 L 60 120 L 60 174.73828 z "
     id="rect4182"
     transform="scale(0.28222222,0.28222222)" />
  <path
     style="opacity:1;fill:#333333;fill-opacity:1;stroke:none;stroke-width:4;stroke-linecap:butt;stroke-linejoin:miter;stroke-miterlimit:4;stroke-dasharray:none;stroke-dashoffset:0;stroke-opacity:1"
     d="M 120 174.75 A 89.999999 89.999999 0 0 0 122.61133 173.88281 A 89.999999 89.999999 0 0 0 130.82422 170.20898 A 89.999999 89.999999 0 0 0 138.62695 165.73242 A 89.999999 89.999999 0 0 0 145.94531 160.5 A 89.999999 89.999999 0 0 0 152.70312 154.5625 A 89.999999 89.999999 0 0 0 158.83594 147.98047 A 89.999999 89.999999 0 0 0 164.2793 140.81836 A 89.999999 89.999999 0 0 0 168.98242 133.14844 A 89.999999 89.999999 0 0 0 172.89453 125.04688 A 89.999999 89.999999 0 0 0 174.73828 120 L 120 120 L 120 174.75 z "
     id="rect4184"
     transform="scale(0.28222222,0.28222222)" />
  <path
     style="opacity:1;fill:#4d4d4d;fill-opacity:1;stroke:none;stroke-width:4;stroke-linecap:butt;stroke-linejoin:miter;stroke-miterlimit:4;stroke-dasharray:none;stroke-dashoffset:0;stroke-opacity:1"
     d="M 174.73828 120 A 89.999999 89.999999 0 0 0 175.98047 116.59766 A 89.999999 89.999999 0 0 0 178.20508 107.88086 A 89.999999 89.999999 0 0 0 179.55078 98.984375 A 89.999999 89.999999 0 0 0 180 90 A 89.999999 89.999999 0 0 0 179.77539 83.632812 A 89.999999 89.999999 0 0 0 178.69141 74.703125 A 89.999999 89.999999 0 0 0 176.7207 65.925781 A 89.999999 89.999999 0 0 0 174.75 60 L 120 60 L 120 120 L 174.73828 120 z "
     id="rect4188"
     transform="scale(0.28222222,0.28222222)" />
  <path
     style="opacity:1;fill:#1a1a1a;fill-opacity:1;stroke:none;stroke-width:4;stroke-linecap:butt;stroke-linejoin:miter;stroke-miterlimit:4;stroke-dasharray:none;stroke-dashoffset:0;stroke-opacity:1"
     d="M 174.75 60 A 89.999999 89.999999 0 0 0 173.88281 57.388672 A 89.999999 89.999999 0 0 0 170.20898 49.175781 A 89.999999 89.999999 0 0 0 165.73242 41.373047 A 89.999999 89.999999 0 0 0 160.5 34.054688 A 89.999999 89.999999 0 0 0 154.5625 27.296875 A 89.999999 89.999999 0 0 0 147.98047 21.164062 A 89.999999 89.999999 0 0 0 140.81836 15.720703 A 89.999999 89.999999 0 0 0 133.14844 11.017578 A 89.999999 89.999999 0 0 0 125.04688 7.1054688 A 89.999999 89.999999 0 0 0 120 5.2617188 L 120 60 L 174.75 60 z "
     id="rect4192"
     transform="scale(0.28222222,0.28222222)" />
  <path
     style="opacity:1;fill:#333333;fill-opacity:1;stroke:none;stroke-width:4;stroke-linecap:butt;stroke-linejoin:miter;stroke-miterlimit:4;stroke-dasharray:none;stroke-dashoffset:0;stroke-opacity:1"
     d="M 90 0 A 89.999999 89.999999 0 0 0 83.632812 0.22460938 A 89.999999 89.999999 0 0 0 74.703125 1.3085938 A 89.999999 89.999999 0 0 0 65.925781 3.2792969 A 89.999999 89.999999 0 0 0 60 5.25 L 60 60 L 120 60 L 120 5.2617188 A 89.999999 89.999999 0 0 0 116.59766 4.0195312 A 89.999999 89.999999 0 0 0 107.88086 1.7949219 A 89.999999 89.999999 0 0 0 98.984375 0.44921875 A 89.999999 89.999999 0 0 0 90 0 z "
     id="path4263"
     transform="scale(0.28222222,0.28222222)" />
  <path
     style="opacity:1;fill:#4d4d4d;fill-opacity:1;stroke:none;stroke-width:4;stroke-linecap:butt;stroke-linejoin:miter;stroke-miterlimit:4;stroke-dasharray:none;stroke-dashoffset:0;stroke-opacity:1"
     d="M 60 5.25 A 89.999999 89.999999 0 0 0 57.388672 6.1171875 A 89.999999 89.999999 0 0 0 49.175781 9.7910156 A 89.999999 89.999999 0 0 0 41.373047 14.267578 A 89.999999 89.999999 0 0 0 34.054688 19.5 A 89.999999 89.999999 0 0 0 27.296875 25.4375 A 89.999999 89.999999 0 0 0 21.164062 32.019531 A 89.999999 89.999999 0 0 0 15.720703 39.181641 A 89.999999 89.999999 0 0 0 11.017578 46.851562 A 89.999999 89.999999 0 0 0 7.1054688 54.953125 A 89.999999 89.999999 0 0 0 5.2617188 60 L 60 60 L 60 5.25 z "
     id="path4229"
     transform="scale(0.28222222,0.28222222)" />
  <path
     d="M 25.06052,30.65707 40.4317,15.28589 c 0.37625,-0.37538 0.99023,-0.37495 1.36734,8.8e-4 0.37107,0.3715 0.37193,0.98893 -10e-4,1.36302 L 26.4247,32.02097 c -0.37322,0.37495 -0.98893,0.37495 -1.36086,0.002 -0.37495,-0.37409 -0.37581,-0.99109 -0.003,-1.36561 m 2.72658,2.72791 13.00111,-13.00025 c 0.37495,-0.37451 0.9885,-0.37581 1.36388,0 0.37323,0.37366 0.37236,0.98937 -0.001,1.36345 L 29.15102,34.74785 c -0.3728,0.37366 -0.98764,0.37539 -1.36216,10e-4 -0.37452,-0.37538 -0.37452,-0.99065 -0.001,-1.36388 m 2.72647,2.72677 10.36524,-10.36439 c 0.37538,-0.37451 0.98894,-0.37581 1.36431,-0.002 0.37194,0.37366 0.3728,0.99066 -0.002,1.36561 L 31.87836,37.47535 c -0.37365,0.37408 -0.98979,0.37408 -1.36388,-10e-4 -0.37279,-0.37323 -0.37279,-0.98894 -4.2e-4,-1.36259"
     style="clip-rule:evenodd;fill:#df5206;fill-rule:evenodd;stroke-width:0.38221318"
     id="path11" />
  <path
     d="M 22.35735,28.93291 8.558455,15.13401 c -0.375812,-0.37581 -0.374949,-0.98979 0.0013,-1.36647 0.371066,-0.37106 0.988934,-0.37193 1.362588,0.002 L 23.72124,27.56887 c 0.37409,0.37322 0.37409,0.9898 8.8e-4,1.36173 -0.37409,0.37581 -0.99152,0.37581 -1.36475,0.003 M 25.12524,26.24657 13.657588,14.77891 c -0.374517,-0.37495 -0.375812,-0.9885 0,-1.36388 0.373223,-0.37366 0.989796,-0.37279 1.363019,4.2e-4 L 26.48826,24.88354 c 0.37366,0.37365 0.37495,0.98764 0,1.36302 -0.37408,0.37365 -0.99022,0.37365 -1.36302,0 m 2.79724,-2.657 -8.902561,-8.90255 c -0.375812,-0.37581 -0.376675,-0.98894 -0.0013,-1.36345 0.372792,-0.37236 0.990228,-0.37323 1.364314,0 l 8.902987,8.90255 c 0.37366,0.37409 0.37366,0.9898 -8.8e-4,1.36432 -0.37322,0.37279 -0.98979,0.37279 -1.36259,-8.8e-4"
     style="clip-rule:evenodd;fill:#6a7029;fill-rule:evenodd;stroke-width:0.38221318"
     id="path17" />
  <path
     style="clip-rule:evenodd;fill:#6a7029;fill-rule:evenodd;stroke-width:0.38221318"
     d="m 18.546163,29.39847 -4.2e-4,-0.003 c 0,0 -0.176904,0.18898 -0.415508,0.50655 -0.0082,0.0125 -0.01855,0.0237 -0.02675,0.0362 -0.512588,0.69251 -1.307359,2.00937 -1.472613,3.73612 -0.24637,2.57847 0.834466,4.08086 0.834466,4.08086 0,0 -0.138502,-1.52439 0.623477,-2.44429 0.188553,-0.22782 0.377969,-0.40861 0.557461,-0.55099 0.674822,0.63815 1.58005,1.03683 2.582794,1.03683 1.15763,0 2.1923,-0.52165 2.88395,-1.34404 0.54969,-0.65367 -4.884268,-5.75021 -5.566856,-5.05468"
     id="path19" />
</svg>
