<?xml version="1.0" encoding="UTF-8" standalone="no"?>
<svg
   xmlns:dc="http://purl.org/dc/elements/1.1/"
   xmlns:cc="http://creativecommons.org/ns#"
   xmlns:rdf="http://www.w3.org/1999/02/22-rdf-syntax-ns#"
   xmlns:svg="http://www.w3.org/2000/svg"
   xmlns="http://www.w3.org/2000/svg"
   xmlns:sodipodi="http://sodipodi.sourceforge.net/DTD/sodipodi-0.dtd"
   xmlns:inkscape="http://www.inkscape.org/namespaces/inkscape"
   height="121.6"
   width="393.87875"
   xml:space="preserve"
   viewBox="0 0 393.87876 121.6"
   y="0px"
   x="0px"
   id="Layer_1"
   version="1.1"
   inkscape:version="0.91 r13725"
   sodipodi:docname="logo.svg"><sodipodi:namedview
     pagecolor="#ffffff"
     bordercolor="#666666"
     borderopacity="1"
     objecttolerance="10"
     gridtolerance="10"
     guidetolerance="10"
     inkscape:pageopacity="0"
     inkscape:pageshadow="2"
     inkscape:window-width="1420"
     inkscape:window-height="867"
     id="namedview25"
     showgrid="false"
     inkscape:zoom="4.09263"
     inkscape:cx="61.449676"
     inkscape:cy="29.186856"
     inkscape:window-x="95"
     inkscape:window-y="91"
     inkscape:window-maximized="0"
     inkscape:current-layer="Layer_1" /><metadata
     id="metadata37"><rdf:RDF><cc:Work
         rdf:about=""><dc:format>image/svg+xml</dc:format><dc:type
           rdf:resource="http://purl.org/dc/dcmitype/StillImage" /><dc:title></dc:title></cc:Work></rdf:RDF></metadata><defs
     id="defs35"><mask
       id="mask4438"
       maskUnits="userSpaceOnUse"><circle
         r="25.4"
         cy="25.400002"
         cx="25.4"
         id="circle4440"
         style="opacity:1;fill:#ffffff;fill-opacity:1;stroke:none;stroke-width:12;stroke-linecap:round;stroke-linejoin:round;stroke-miterlimit:4;stroke-dasharray:none;stroke-dashoffset:0;stroke-opacity:1" /></mask><mask
       id="mask4442"
       maskUnits="userSpaceOnUse"><circle
         r="25.4"
         cy="25.400002"
         cx="25.4"
         id="circle4444"
         style="opacity:1;fill:#ffffff;fill-opacity:1;stroke:none;stroke-width:12;stroke-linecap:round;stroke-linejoin:round;stroke-miterlimit:4;stroke-dasharray:none;stroke-dashoffset:0;stroke-opacity:1" /></mask></defs><style
     id="style3"
     type="text/css">
	.st0{fill:#FFFFFF;}
	.st1{fill:#527F3A;}
	.st2{fill-rule:evenodd;clip-rule:evenodd;fill:#527F3A;}
	.st3{fill-rule:evenodd;clip-rule:evenodd;fill:#1E87C9;}
	.st4{fill-rule:evenodd;clip-rule:evenodd;fill:#FFFFFF;}
</style><rect
     style="opacity:1;fill:#1a1a1a;fill-opacity:1;stroke:#cccccc;stroke-width:4;stroke-linecap:butt;stroke-linejoin:miter;stroke-miterlimit:4;stroke-dasharray:none;stroke-dashoffset:0;stroke-opacity:1"
     id="rect4257"
     width="92"
     height="92"
     x="2"
     y="14.799999" /><g
     id="text4156"
     style="font-style:normal;font-weight:normal;font-size:40px;line-height:125%;font-family:sans-serif;letter-spacing:0px;word-spacing:0px;fill:#000000;fill-opacity:1;stroke:none;stroke-width:1px;stroke-linecap:butt;stroke-linejoin:miter;stroke-opacity:1"
     transform="translate(0,1.5258789e-6)"><path
       id="path4161"
       style="font-style:normal;font-variant:normal;font-weight:600;font-stretch:normal;font-family:'Zilla Slab';-inkscape-font-specification:'Zilla Slab Semi-Bold';fill:#ffffff"
       d="m 142.96,70.300003 0,-3.8 -2.8,0 -7.28,-9.8 6.68,-8.6 2.92,0 0,-3.8 -10.16,0 0,3.8 2.56,0 -5.4,7.2 -3.64,0 0,-7.2 2.6,0 0,-3.8 -10.04,0 0,3.8 3,0 0,18.4 -3,0 0,3.8 9.92,0 0,-3.8 -2.48,0 0,-7.56 3.6,0 5.6,7.56 -2.68,0 0,3.8 10.6,0 z"
       inkscape:connector-curvature="0" /><path
       id="path4163"
       style="font-style:normal;font-variant:normal;font-weight:600;font-stretch:normal;font-family:'Zilla Slab';-inkscape-font-specification:'Zilla Slab Semi-Bold';fill:#ffffff"
       d="m 160.8175,64.820003 -3.56,-0.68 c -0.36,1.52 -1.4,3.12 -4.16,3.12 -2.96,0 -4.56,-1.8 -4.8,-5.04 l 12.12,0 c 0.16,-0.84 0.24,-1.64 0.24,-2.4 -0.04,-4.52 -3.16,-7.84 -8.12,-7.84 -5.48,0 -8.72,4.12 -8.72,9.64 0,5.96 3.72,9.08 8.96,9.08 4.88,0 7.72,-2.72 8.04,-5.88 z m -4.56,-5.24 -7.92,0 c 0.32,-2.52 1.6,-4.44 4.16,-4.44 2.84,0 4,2.32 3.76,4.44 z"
       inkscape:connector-curvature="0" /><path
       id="path4165"
       style="font-style:normal;font-variant:normal;font-weight:600;font-stretch:normal;font-family:'Zilla Slab';-inkscape-font-specification:'Zilla Slab Semi-Bold';fill:#ffffff"
       d="m 164.79813,53.660003 -0.76,4.48 3.44,0.36 0.72,-2.76 c 0.92,-0.48 1.88,-0.6 3,-0.6 3,0 3.36,2.04 3.36,4.16 l 0,1 c -0.92,-0.12 -2,-0.16 -3.04,-0.16 -4.08,0 -8.36,1 -8.36,5.44 0,3.8 3,5.12 5.52,5.12 2.88,0 4.8,-1.76 5.88,-3.64 l 0,0.08 c 0.16,2.16 1.4,3.56 3.68,3.56 1,0 2.04,-0.28 2.88,-0.76 l -0.04,-2.36 c -0.28,0.08 -0.64,0.16 -0.92,0.16 -0.92,0 -1.32,-0.44 -1.32,-1.6 l 0,-8.08 c 0,-4.08 -2.88,-6.08 -6.88,-6.08 -2.72,0 -4.48,0.4 -7.16,1.68 z m 9.76,9.52 c -0.2,2.88 -2.36,4.36 -4.4,4.36 -1.56,0 -2.6,-0.84 -2.6,-2.44 0,-2.24 2,-2.8 4.12,-2.8 1,0 1.96,0.12 2.88,0.24 l 0,0.64 z"
       inkscape:connector-curvature="0" /><path
       id="path4167"
       style="font-style:normal;font-variant:normal;font-weight:600;font-stretch:normal;font-family:'Zilla Slab';-inkscape-font-specification:'Zilla Slab Semi-Bold';fill:#ffffff"
       d="m 210.24875,62.660003 c 0,-6.4 -5.6,-7.12 -8.88,-7.84 -2.56,-0.6 -5,-1.2 -5,-3.8 0,-2.24 1.84,-3.2 4.36,-3.2 1.4,0 2.92,0.24 4.4,1.12 l 0.36,3.36 3.56,-0.32 -0.24,-5.48 c -1.68,-1.56 -5,-2.6 -8.2,-2.6 -4.6,0 -9,2.2 -9,7.64 0,5.44 4.36,6.36 8.08,7.08 3.04,0.6 5.8,1.24 5.8,4.52 0,3 -2.32,3.72 -5.4,3.72 -1.28,0 -2.72,-0.12 -4.48,-1.04 l 0.08,-3.2 -3.56,-0.36 -0.72,5.96 c 1.92,1.6 5.48,2.48 9,2.48 5.92,0 9.84,-2.84 9.84,-8.04 z"
       inkscape:connector-curvature="0" /><path
       id="path4169"
       style="font-style:normal;font-variant:normal;font-weight:600;font-stretch:normal;font-family:'Zilla Slab';-inkscape-font-specification:'Zilla Slab Semi-Bold';fill:#ffffff"
       d="m 234.16188,70.300003 0,-3.28 -2.8,0 0,-14.68 -7.48,0 0,3.28 3.2,0 0,7 c -0.04,2.56 -1.72,4.72 -4.4,4.72 -2.24,0 -3.52,-1.28 -3.52,-4.68 l 0,-10.32 -6.96,0 0,3.28 2.68,0 0,8.6 c 0,4.48 2.84,6.44 6.28,6.44 2.68,0 4.8,-1.24 5.92,-3.36 l 0,3 7.08,0 z"
       inkscape:connector-curvature="0" /><path
       id="path4171"
       style="font-style:normal;font-variant:normal;font-weight:600;font-stretch:normal;font-family:'Zilla Slab';-inkscape-font-specification:'Zilla Slab Semi-Bold';fill:#ffffff"
       d="m 246.96688,52.060003 c -2.28,0 -3.68,1.6 -4.32,3.64 l 0,-3.36 -6.76,0 0,3.32 2.8,0 0,11.36 -2.68,0 0,3.28 10.52,0 0,-3.28 -3.56,0 0,-7.96 c 0,-2.16 1.24,-3.48 2.76,-3.48 0.48,0 0.88,0.16 1.36,0.4 l 0.68,3.08 3.32,-0.4 -0.76,-5.6 c -1.12,-0.72 -2.28,-1 -3.36,-1 z"
       inkscape:connector-curvature="0" /><path
       id="path4173"
       style="font-style:normal;font-variant:normal;font-weight:600;font-stretch:normal;font-family:'Zilla Slab';-inkscape-font-specification:'Zilla Slab Semi-Bold';fill:#ffffff"
       d="m 272.5925,55.620003 0,-3.28 -8.08,0 0,3.28 2,0 -3.36,9.12 -0.24,0 -4.04,-9.12 2.2,0 0,-3.28 -8.8,0 0,3.28 2,0 6.8,14.68 3.12,0 6.44,-14.68 1.96,0 z"
       inkscape:connector-curvature="0" /><path
       id="path4175"
       style="font-style:normal;font-variant:normal;font-weight:600;font-stretch:normal;font-family:'Zilla Slab';-inkscape-font-specification:'Zilla Slab Semi-Bold';fill:#ffffff"
       d="m 290.34875,64.820003 -3.56,-0.68 c -0.36,1.52 -1.4,3.12 -4.16,3.12 -2.96,0 -4.56,-1.8 -4.8,-5.04 l 12.12,0 c 0.16,-0.84 0.24,-1.64 0.24,-2.4 -0.04,-4.52 -3.16,-7.84 -8.12,-7.84 -5.48,0 -8.72,4.12 -8.72,9.64 0,5.96 3.72,9.08 8.96,9.08 4.88,0 7.72,-2.72 8.04,-5.88 z m -4.56,-5.24 -7.92,0 c 0.32,-2.52 1.6,-4.44 4.16,-4.44 2.84,0 4,2.32 3.76,4.44 z"
       inkscape:connector-curvature="0" /><path
       id="path4177"
       style="font-style:normal;font-variant:normal;font-weight:600;font-stretch:normal;font-family:'Zilla Slab';-inkscape-font-specification:'Zilla Slab Semi-Bold';fill:#ffffff"
       d="m 311.30625,55.620003 0,-3.28 -8.08,0 0,3.28 2.04,0 -3.36,9.72 -0.24,0 -4.16,-9.72 2.28,0 0,-3.28 -8.84,0 0,3.28 1.96,0 6.36,14.84 -1.76,5 -3.04,0 0,3.36 9.6,0 0,-3.36 -2.64,0 2,-5.16 6,-14.68 1.88,0 z"
       inkscape:connector-curvature="0" /><path
       id="path4179"
       style="font-style:normal;font-variant:normal;font-weight:600;font-stretch:normal;font-family:'Zilla Slab';-inkscape-font-specification:'Zilla Slab Semi-Bold';fill:#ffffff"
       d="m 343.395,52.780003 -0.8,-8.48 -22.28,0 -0.8,8.48 3.8,0.32 0.8,-5 5.12,0 0,18.4 -4.2,0 0,3.8 13,0 0,-3.8 -4.36,0 0,-18.4 5.08,0 0.8,5 3.84,-0.32 z"
       inkscape:connector-curvature="0" /><path
       id="path4181"
       style="font-style:normal;font-variant:normal;font-weight:600;font-stretch:normal;font-family:'Zilla Slab';-inkscape-font-specification:'Zilla Slab Semi-Bold';fill:#ffffff"
       d="m 361.8325,61.340003 c 0,-5.08 -3.08,-9.4 -9.32,-9.4 -6.2,0 -9.36,4.32 -9.36,9.56 0,5.64 3.64,9.2 9.12,9.2 5.64,0 9.56,-3.76 9.56,-9.36 z m -4.44,-0.12 c 0,3.64 -1.88,6.12 -4.96,6.12 -3.2,0 -4.84,-2.68 -4.84,-6.08 0,-3.6 1.8,-5.96 4.84,-5.96 2.92,0 4.96,2.08 4.96,5.92 z"
       inkscape:connector-curvature="0" /><path
       id="path4183"
       style="font-style:normal;font-variant:normal;font-weight:600;font-stretch:normal;font-family:'Zilla Slab';-inkscape-font-specification:'Zilla Slab Semi-Bold';fill:#ffffff"
       d="m 382.53563,61.340003 c 0,-5.08 -3.08,-9.4 -9.32,-9.4 -6.2,0 -9.36,4.32 -9.36,9.56 0,5.64 3.64,9.2 9.12,9.2 5.64,0 9.56,-3.76 9.56,-9.36 z m -4.44,-0.12 c 0,3.64 -1.88,6.12 -4.96,6.12 -3.2,0 -4.84,-2.68 -4.84,-6.08 0,-3.6 1.8,-5.96 4.84,-5.96 2.92,0 4.96,2.08 4.96,5.92 z"
       inkscape:connector-curvature="0" /><path
       id="path4185"
       style="font-style:normal;font-variant:normal;font-weight:600;font-stretch:normal;font-family:'Zilla Slab';-inkscape-font-specification:'Zilla Slab Semi-Bold';fill:#ffffff"
       d="m 393.87875,70.300003 0,-3.28 -2.68,0 0,-24.24 -7.08,0 0,3.28 2.84,0 0,20.96 -2.68,0 0,3.28 9.6,0 z"
       inkscape:connector-curvature="0" /></g><style
     type="text/css"
     id="style4361">
	.st0{fill:#FFFFFF;}
	.st1{fill:#527F3A;}
	.st2{fill-rule:evenodd;clip-rule:evenodd;fill:#527F3A;}
	.st3{fill-rule:evenodd;clip-rule:evenodd;fill:#1E87C9;}
	.st4{fill-rule:evenodd;clip-rule:evenodd;fill:#FFFFFF;}
</style><style
     type="text/css"
     id="style4587">
	.st0{fill:#FFFFFF;}
	.st1{fill:#527F3A;}
	.st2{fill-rule:evenodd;clip-rule:evenodd;fill:#527F3A;}
	.st3{fill-rule:evenodd;clip-rule:evenodd;fill:#1E87C9;}
	.st4{fill-rule:evenodd;clip-rule:evenodd;fill:#FFFFFF;}
</style><style
     type="text/css"
     id="style4936">
	.st0{fill:#FFFFFF;}
	.st1{fill:#527F3A;}
	.st2{fill-rule:evenodd;clip-rule:evenodd;fill:#527F3A;}
	.st3{fill-rule:evenodd;clip-rule:evenodd;fill:#1E87C9;}
	.st4{fill-rule:evenodd;clip-rule:evenodd;fill:#FFFFFF;}
</style><path
     inkscape:connector-curvature="0"
     d="m 47.358704,70.734932 29.047891,-29.0479 c 0.711024,-0.709385 1.871308,-0.708569 2.583957,0.0014 0.701232,0.702048 0.702857,1.868846 -0.0021,2.57579 L 49.936517,73.312093 c -0.705299,0.708562 -1.868846,0.708562 -2.57171,0.0041 -0.708562,-0.706944 -0.710188,-1.872925 -0.0055,-2.580685 m 5.152594,5.155104 24.569026,-24.567395 c 0.708569,-0.707739 1.868029,-0.710194 2.577414,0 0.705312,0.706128 0.703674,1.869676 -0.0021,2.576592 L 55.088555,78.465476 c -0.704509,0.706128 -1.866404,0.709399 -2.574164,0.0021 -0.707753,-0.709385 -0.707753,-1.872096 -0.0021,-2.577415 m 5.152381,5.152951 19.587853,-19.586249 c 0.709385,-0.707733 1.868866,-0.710187 2.578224,-0.0041 0.702878,0.706135 0.704503,1.872116 -0.0041,2.580685 l -19.584603,19.58625 c -0.706107,0.706923 -1.870464,0.706923 -2.577408,-0.0021 -0.704489,-0.705312 -0.704489,-1.86886 -6.85e-4,-2.574974"
     style="clip-rule:evenodd;fill:#cccccc;fill-opacity:1;fill-rule:evenodd;stroke-width:0.38221318"
     id="path11-9" /><path
     inkscape:connector-curvature="0"
     d="M 42.250345,67.476678 16.173693,41.400013 c -0.710194,-0.710194 -0.708562,-1.870471 0.0027,-2.582304 0.701232,-0.701218 1.868853,-0.702864 2.574974,0.0041 l 26.076702,26.077489 c 0.706944,0.705298 0.706944,1.870484 0.0014,2.573348 -0.706944,0.710195 -1.873735,0.710195 -2.579054,0.0055 M 47.481008,62.400281 25.809851,40.72911 c -0.707746,-0.708569 -0.710194,-1.86803 0,-2.577408 0.705305,-0.706128 1.870485,-0.704489 2.57579,6.86e-4 l 21.67115,21.671986 c 0.706135,0.706108 0.708569,1.866405 0,2.575783 -0.706924,0.706114 -1.87128,0.706114 -2.575783,0 M 52.767131,57.379055 35.943392,40.555336 c -0.710194,-0.710194 -0.711826,-1.868859 -0.0027,-2.576598 0.704489,-0.703667 1.871294,-0.705312 2.578231,0 l 16.824499,16.823718 c 0.706128,0.706944 0.706128,1.870492 -0.0014,2.578245 -0.705291,0.704482 -1.870464,0.704482 -2.574967,-0.0014"
     style="clip-rule:evenodd;fill:#cccccc;fill-opacity:1;fill-rule:evenodd;stroke-width:0.38221318"
     id="path17-2" /><path
     inkscape:connector-curvature="0"
     style="clip-rule:evenodd;fill:#cccccc;fill-opacity:1;fill-rule:evenodd;stroke-width:0.38221318"
     d="m 35.048103,68.356477 -6.86e-4,-0.0055 c 0,0 -0.334306,0.357127 -0.785211,0.957258 -0.01557,0.02359 -0.03504,0.04478 -0.05054,0.06843 -0.968667,1.308679 -2.470601,3.797232 -2.782889,7.060382 -0.465579,4.872699 1.576944,7.711865 1.576944,7.711865 0,0 -0.261737,-2.880741 1.178222,-4.619136 0.356325,-0.430526 0.714274,-0.772176 1.05347,-1.041237 1.275257,1.205952 2.985922,1.95936 4.880873,1.95936 2.187648,0 4.142928,-0.985796 5.449982,-2.539913 1.038788,-1.235287 -9.230112,-10.866542 -10.520044,-9.552158"
     id="path19-7" /></svg>