<?xml version="1.0" encoding="UTF-8" standalone="no"?>
<svg
   xmlns:dc="http://purl.org/dc/elements/1.1/"
   xmlns:cc="http://creativecommons.org/ns#"
   xmlns:rdf="http://www.w3.org/1999/02/22-rdf-syntax-ns#"
   xmlns:svg="http://www.w3.org/2000/svg"
   xmlns="http://www.w3.org/2000/svg"
   version="1.1"
   id="Layer_1"
   x="0px"
   y="0px"
   viewBox="0 0 425.91105 121.6"
   xml:space="preserve"
   width="425.91104"
   height="121.6"><metadata
     id="metadata37"><rdf:RDF><cc:Work
         rdf:about=""><dc:format>image/svg+xml</dc:format><dc:type
           rdf:resource="http://purl.org/dc/dcmitype/StillImage" /><dc:title></dc:title></cc:Work></rdf:RDF></metadata><defs
     id="defs35"><mask
       maskUnits="userSpaceOnUse"
       id="mask4438"><circle
         style="opacity:1;fill:#ffffff;fill-opacity:1;stroke:none;stroke-width:12;stroke-linecap:round;stroke-linejoin:round;stroke-miterlimit:4;stroke-dasharray:none;stroke-dashoffset:0;stroke-opacity:1"
         id="circle4440"
         cx="25.4"
         cy="25.400002"
         r="25.4" /></mask><mask
       maskUnits="userSpaceOnUse"
       id="mask4442"><circle
         style="opacity:1;fill:#ffffff;fill-opacity:1;stroke:none;stroke-width:12;stroke-linecap:round;stroke-linejoin:round;stroke-miterlimit:4;stroke-dasharray:none;stroke-dashoffset:0;stroke-opacity:1"
         id="circle4444"
         cx="25.4"
         cy="25.400002"
         r="25.4" /></mask></defs><style
     type="text/css"
     id="style3">
	.st0{fill:#FFFFFF;}
	.st1{fill:#527F3A;}
	.st2{fill-rule:evenodd;clip-rule:evenodd;fill:#527F3A;}
	.st3{fill-rule:evenodd;clip-rule:evenodd;fill:#1E87C9;}
	.st4{fill-rule:evenodd;clip-rule:evenodd;fill:#FFFFFF;}
</style><style
     id="style4361"
     type="text/css">
	.st0{fill:#FFFFFF;}
	.st1{fill:#527F3A;}
	.st2{fill-rule:evenodd;clip-rule:evenodd;fill:#527F3A;}
	.st3{fill-rule:evenodd;clip-rule:evenodd;fill:#1E87C9;}
	.st4{fill-rule:evenodd;clip-rule:evenodd;fill:#FFFFFF;}
</style><style
     id="style4587"
     type="text/css">
	.st0{fill:#FFFFFF;}
	.st1{fill:#527F3A;}
	.st2{fill-rule:evenodd;clip-rule:evenodd;fill:#527F3A;}
	.st3{fill-rule:evenodd;clip-rule:evenodd;fill:#1E87C9;}
	.st4{fill-rule:evenodd;clip-rule:evenodd;fill:#FFFFFF;}
</style><style
     id="style4936"
     type="text/css">
	.st0{fill:#FFFFFF;}
	.st1{fill:#527F3A;}
	.st2{fill-rule:evenodd;clip-rule:evenodd;fill:#527F3A;}
	.st3{fill-rule:evenodd;clip-rule:evenodd;fill:#1E87C9;}
	.st4{fill-rule:evenodd;clip-rule:evenodd;fill:#FFFFFF;}
</style><path
     style="opacity:1;fill:#000000;fill-opacity:1;stroke:none;stroke-width:4;stroke-linecap:butt;stroke-linejoin:miter;stroke-miterlimit:4;stroke-dasharray:none;stroke-dashoffset:0;stroke-opacity:1"
     d="M 121.59999,60.799998 A 60.799998,60.799998 0 0 1 60.799998,121.6 60.799998,60.799998 0 0 1 0,60.799998 60.799998,60.799998 0 0 1 60.799998,0 60.799998,60.799998 0 0 1 121.59999,60.799998 Z"
     id="path4246" /><path
     id="path11"
     style="clip-rule:evenodd;fill:#df5206;fill-rule:evenodd;stroke-width:0.38221318"
     d="M 59.987384,73.383845 96.781389,36.589841 c 0.900629,-0.898548 2.370314,-0.897518 3.273001,0.0021 0.88823,0.88926 0.89029,2.367202 -0.002,3.262662 l -36.799567,36.79401 c -0.893377,0.897518 -2.367203,0.897518 -3.257492,0.0048 -0.897518,-0.89546 -0.899576,-2.372373 -0.0072,-3.268862 m 6.526617,6.5298 31.120766,-31.118707 c 0.897518,-0.896465 2.366176,-0.899577 3.264716,0 0.8934,0.89443 0.89132,2.368255 -0.002,3.263691 L 69.778817,83.175948 c -0.892372,0.89443 -2.364115,0.898571 -3.260603,0.0024 -0.896489,-0.898548 -0.896489,-2.37132 -0.0024,-3.264721 m 6.526353,6.527071 24.811282,-24.809247 c 0.898548,-0.896465 2.367221,-0.899577 3.265751,-0.0048 0.89031,0.894431 0.89237,2.371344 -0.005,3.268862 L 76.307253,89.704767 c -0.894407,0.895435 -2.369261,0.895435 -3.264721,-0.0024 -0.892348,-0.893401 -0.892348,-2.367227 -10e-4,-3.261633" /><path
     id="path17"
     style="clip-rule:evenodd;fill:#6a7029;fill-rule:evenodd;stroke-width:0.38221318"
     d="M 53.516804,69.256722 20.48638,36.226285 c -0.899582,-0.899576 -0.897516,-2.369261 0.0031,-3.27092 0.88822,-0.888206 2.367212,-0.890289 3.261627,0.0048 l 33.03043,33.031465 c 0.895459,0.893377 0.895459,2.369285 0.0021,3.259574 -0.895459,0.899577 -2.373402,0.899577 -3.266803,0.0072 M 60.142305,62.826428 32.692178,35.376282 c -0.896482,-0.897518 -0.899581,-2.366173 0,-3.26472 0.893384,-0.894431 2.369275,-0.892348 3.262659,10e-4 l 27.45013,27.451175 c 0.89443,0.894406 0.897518,2.364115 0,3.262662 -0.895436,0.894406 -2.370291,0.894406 -3.262662,0 M 66.83806,56.466341 45.527993,35.156301 c -0.899581,-0.899577 -0.901647,-2.367226 -0.0031,-3.263691 0.892352,-0.891318 2.370309,-0.893401 3.265759,0 l 21.311086,21.31004 c 0.89443,0.89546 0.89443,2.369285 -0.0021,3.265774 -0.893377,0.892347 -2.369261,0.892347 -3.261633,-0.0021" /><path
     id="path19"
     d="m 44.393963,70.371133 -10e-4,-0.0072 c 0,0 -0.423455,0.452362 -0.994602,1.212529 -0.01963,0.02992 -0.0444,0.05673 -0.06403,0.08665 -1.226983,1.657662 -3.129426,4.809831 -3.524995,8.943153 -0.589736,6.172086 1.997462,9.768358 1.997462,9.768358 0,0 -0.331533,-3.648934 1.492417,-5.850899 0.45134,-0.545333 0.904745,-0.97809 1.334395,-1.318905 1.615322,1.52754 3.782167,2.481861 6.182436,2.481861 2.771019,0 5.24771,-1.248674 6.903313,-3.21723 C 59.035152,80.90476 46.027883,68.705168 44.393972,70.370059"
     style="clip-rule:evenodd;fill:#6a7029;fill-rule:evenodd;stroke-width:0.38221318" /><g
     id="text4478"
     style="font-style:normal;font-weight:normal;font-size:40px;line-height:100%;font-family:sans-serif;letter-spacing:0px;word-spacing:0px;fill:#ffffff;fill-opacity:1;stroke:none;stroke-width:1px;stroke-linecap:butt;stroke-linejoin:miter;stroke-opacity:1"><path
       id="path4591"
       style="font-style:normal;font-variant:normal;font-weight:600;font-stretch:normal;line-height:100%;font-family:'Zilla Slab';-inkscape-font-specification:'Zilla Slab Semi-Bold';fill:#ffffff"
       d="m 174.99231,70.299995 0,-3.8 -2.8,0 -7.28,-9.8 6.68,-8.6 2.92,0 0,-3.8 -10.16,0 0,3.8 2.56,0 -5.4,7.2 -3.64,0 0,-7.2 2.6,0 0,-3.8 -10.04,0 0,3.8 3,0 0,18.4 -3,0 0,3.8 9.92,0 0,-3.8 -2.48,0 0,-7.56 3.6,0 5.6,7.56 -2.68,0 0,3.8 10.6,0 z" /><path
       id="path4593"
       style="font-style:normal;font-variant:normal;font-weight:600;font-stretch:normal;line-height:100%;font-family:'Zilla Slab';-inkscape-font-specification:'Zilla Slab Semi-Bold';fill:#ffffff"
       d="m 192.84981,64.819995 -3.56,-0.68 c -0.36,1.52 -1.4,3.12 -4.16,3.12 -2.96,0 -4.56,-1.8 -4.8,-5.04 l 12.12,0 c 0.16,-0.84 0.24,-1.64 0.24,-2.4 -0.04,-4.52 -3.16,-7.84 -8.12,-7.84 -5.48,0 -8.72,4.12 -8.72,9.64 0,5.96 3.72,9.08 8.96,9.08 4.88,0 7.72,-2.72 8.04,-5.88 z m -4.56,-5.24 -7.92,0 c 0.32,-2.52 1.6,-4.44 4.16,-4.44 2.84,0 4,2.32 3.76,4.44 z" /><path
       id="path4595"
       style="font-style:normal;font-variant:normal;font-weight:600;font-stretch:normal;line-height:100%;font-family:'Zilla Slab';-inkscape-font-specification:'Zilla Slab Semi-Bold';fill:#ffffff"
       d="m 196.83043,53.659995 -0.76,4.48 3.44,0.36 0.72,-2.76 c 0.92,-0.48 1.88,-0.6 3,-0.6 3,0 3.36,2.04 3.36,4.16 l 0,1 c -0.92,-0.12 -2,-0.16 -3.04,-0.16 -4.08,0 -8.36,1 -8.36,5.44 0,3.8 3,5.12 5.52,5.12 2.88,0 4.8,-1.76 5.88,-3.64 l 0,0.08 c 0.16,2.16 1.4,3.56 3.68,3.56 1,0 2.04,-0.28 2.88,-0.76 l -0.04,-2.36 c -0.28,0.08 -0.64,0.16 -0.92,0.16 -0.92,0 -1.32,-0.44 -1.32,-1.6 l 0,-8.08 c 0,-4.08 -2.88,-6.08 -6.88,-6.08 -2.72,0 -4.48,0.4 -7.16,1.68 z m 9.76,9.52 c -0.2,2.88 -2.36,4.36 -4.4,4.36 -1.56,0 -2.6,-0.84 -2.6,-2.44 0,-2.24 2,-2.8 4.12,-2.8 1,0 1.96,0.12 2.88,0.24 l 0,0.64 z" /><path
       id="path4597"
       style="font-style:normal;font-variant:normal;font-weight:600;font-stretch:normal;line-height:100%;font-family:'Zilla Slab';-inkscape-font-specification:'Zilla Slab Semi-Bold';fill:#ffffff"
       d="m 242.28106,62.659995 c 0,-6.4 -5.6,-7.12 -8.88,-7.84 -2.56,-0.6 -5,-1.2 -5,-3.8 0,-2.24 1.84,-3.2 4.36,-3.2 1.4,0 2.92,0.24 4.4,1.12 l 0.36,3.36 3.56,-0.32 -0.24,-5.48 c -1.68,-1.56 -5,-2.6 -8.2,-2.6 -4.6,0 -9,2.2 -9,7.64 0,5.44 4.36,6.36 8.08,7.08 3.04,0.6 5.8,1.24 5.8,4.52 0,3 -2.32,3.72 -5.4,3.72 -1.28,0 -2.72,-0.12 -4.48,-1.04 l 0.08,-3.2 -3.56,-0.36 -0.72,5.96 c 1.92,1.6 5.48,2.48 9,2.48 5.92,0 9.84,-2.84 9.84,-8.04 z" /><path
       id="path4599"
       style="font-style:normal;font-variant:normal;font-weight:600;font-stretch:normal;line-height:100%;font-family:'Zilla Slab';-inkscape-font-specification:'Zilla Slab Semi-Bold';fill:#ffffff"
       d="m 266.19418,70.299995 0,-3.28 -2.8,0 0,-14.68 -7.48,0 0,3.28 3.2,0 0,7 c -0.04,2.56 -1.72,4.72 -4.4,4.72 -2.24,0 -3.52,-1.28 -3.52,-4.68 l 0,-10.32 -6.96,0 0,3.28 2.68,0 0,8.6 c 0,4.48 2.84,6.44 6.28,6.44 2.68,0 4.8,-1.24 5.92,-3.36 l 0,3 7.08,0 z" /><path
       id="path4601"
       style="font-style:normal;font-variant:normal;font-weight:600;font-stretch:normal;line-height:100%;font-family:'Zilla Slab';-inkscape-font-specification:'Zilla Slab Semi-Bold';fill:#ffffff"
       d="m 278.99918,52.059995 c -2.28,0 -3.68,1.6 -4.32,3.64 l 0,-3.36 -6.76,0 0,3.32 2.8,0 0,11.36 -2.68,0 0,3.28 10.52,0 0,-3.28 -3.56,0 0,-7.96 c 0,-2.16 1.24,-3.48 2.76,-3.48 0.48,0 0.88,0.16 1.36,0.4 l 0.68,3.08 3.32,-0.4 -0.76,-5.6 c -1.12,-0.72 -2.28,-1 -3.36,-1 z" /><path
       id="path4603"
       style="font-style:normal;font-variant:normal;font-weight:600;font-stretch:normal;line-height:100%;font-family:'Zilla Slab';-inkscape-font-specification:'Zilla Slab Semi-Bold';fill:#ffffff"
       d="m 304.62481,55.619995 0,-3.28 -8.08,0 0,3.28 2,0 -3.36,9.12 -0.24,0 -4.04,-9.12 2.2,0 0,-3.28 -8.8,0 0,3.28 2,0 6.8,14.68 3.12,0 6.44,-14.68 1.96,0 z" /><path
       id="path4605"
       style="font-style:normal;font-variant:normal;font-weight:600;font-stretch:normal;line-height:100%;font-family:'Zilla Slab';-inkscape-font-specification:'Zilla Slab Semi-Bold';fill:#ffffff"
       d="m 322.38106,64.819995 -3.56,-0.68 c -0.36,1.52 -1.4,3.12 -4.16,3.12 -2.96,0 -4.56,-1.8 -4.8,-5.04 l 12.12,0 c 0.16,-0.84 0.24,-1.64 0.24,-2.4 -0.04,-4.52 -3.16,-7.84 -8.12,-7.84 -5.48,0 -8.72,4.12 -8.72,9.64 0,5.96 3.72,9.08 8.96,9.08 4.88,0 7.72,-2.72 8.04,-5.88 z m -4.56,-5.24 -7.92,0 c 0.32,-2.52 1.6,-4.44 4.16,-4.44 2.84,0 4,2.32 3.76,4.44 z" /><path
       id="path4607"
       style="font-style:normal;font-variant:normal;font-weight:600;font-stretch:normal;line-height:100%;font-family:'Zilla Slab';-inkscape-font-specification:'Zilla Slab Semi-Bold';fill:#ffffff"
       d="m 343.33856,55.619995 0,-3.28 -8.08,0 0,3.28 2.04,0 -3.36,9.72 -0.24,0 -4.16,-9.72 2.28,0 0,-3.28 -8.84,0 0,3.28 1.96,0 6.36,14.84 -1.76,5 -3.04,0 0,3.36 9.6,0 0,-3.36 -2.64,0 2,-5.16 6,-14.68 1.88,0 z" /><path
       id="path4609"
       style="font-style:normal;font-variant:normal;font-weight:600;font-stretch:normal;line-height:100%;font-family:'Zilla Slab';-inkscape-font-specification:'Zilla Slab Semi-Bold';fill:#ffffff"
       d="m 375.42731,52.779995 -0.8,-8.48 -22.28,0 -0.8,8.48 3.8,0.32 0.8,-5 5.12,0 0,18.4 -4.2,0 0,3.8 13,0 0,-3.8 -4.36,0 0,-18.4 5.08,0 0.8,5 3.84,-0.32 z" /><path
       id="path4611"
       style="font-style:normal;font-variant:normal;font-weight:600;font-stretch:normal;line-height:100%;font-family:'Zilla Slab';-inkscape-font-specification:'Zilla Slab Semi-Bold';fill:#ffffff"
       d="m 393.86481,61.339995 c 0,-5.08 -3.08,-9.4 -9.32,-9.4 -6.2,0 -9.36,4.32 -9.36,9.56 0,5.64 3.64,9.2 9.12,9.2 5.64,0 9.56,-3.76 9.56,-9.36 z m -4.44,-0.12 c 0,3.64 -1.88,6.12 -4.96,6.12 -3.2,0 -4.84,-2.68 -4.84,-6.08 0,-3.6 1.8,-5.96 4.84,-5.96 2.92,0 4.96,2.08 4.96,5.92 z" /><path
       id="path4613"
       style="font-style:normal;font-variant:normal;font-weight:600;font-stretch:normal;line-height:100%;font-family:'Zilla Slab';-inkscape-font-specification:'Zilla Slab Semi-Bold';fill:#ffffff"
       d="m 414.56793,61.339995 c 0,-5.08 -3.08,-9.4 -9.32,-9.4 -6.2,0 -9.36,4.32 -9.36,9.56 0,5.64 3.64,9.2 9.12,9.2 5.64,0 9.56,-3.76 9.56,-9.36 z m -4.44,-0.12 c 0,3.64 -1.88,6.12 -4.96,6.12 -3.2,0 -4.84,-2.68 -4.84,-6.08 0,-3.6 1.8,-5.96 4.84,-5.96 2.92,0 4.96,2.08 4.96,5.92 z" /><path
       id="path4615"
       style="font-style:normal;font-variant:normal;font-weight:600;font-stretch:normal;line-height:100%;font-family:'Zilla Slab';-inkscape-font-specification:'Zilla Slab Semi-Bold';fill:#ffffff"
       d="m 425.91106,70.299995 0,-3.28 -2.68,0 0,-24.24 -7.08,0 0,3.28 2.84,0 0,20.96 -2.68,0 0,3.28 9.6,0 z" /></g></svg>